<svg xmlns="http://www.w3.org/2000/svg" width="1000" height="1500" viewBox="0 0 1000 1500">
  <rect width="1000" height="1500" fill="#f2eadf"/>
  <rect x="58" y="58" width="884" height="1384" rx="34" fill="#fffaf3" stroke="#20201d" stroke-width="4"/>
  <text x="100" y="145" fill="#695441" font-family="Arial, Helvetica, sans-serif" font-size="28" font-weight="700" letter-spacing="5">BEEP BOT PICKS / FALL 2026</text>
  <text x="100" y="285" fill="#20201d" font-family="Georgia, serif" font-size="96" font-weight="700">5 resale</text>
  <text x="100" y="385" fill="#20201d" font-family="Georgia, serif" font-size="96" font-weight="700">searches</text>
  <text x="100" y="460" fill="#695441" font-family="Arial, Helvetica, sans-serif" font-size="42">for an edited fall wardrobe</text>
  <line x1="100" y1="520" x2="900" y2="520" stroke="#20201d" stroke-width="3"/>
  <g font-family="Arial, Helvetica, sans-serif">
    <circle cx="135" cy="610" r="28" fill="#244c66"/><text x="126" y="621" fill="#fff" font-size="30" font-weight="700">1</text>
    <text x="195" y="622" fill="#20201d" font-size="42" font-weight="700">Vintage workwear jacket</text>
    <circle cx="135" cy="735" r="28" fill="#244c66"/><text x="126" y="746" fill="#fff" font-size="30" font-weight="700">2</text>
    <text x="195" y="747" fill="#20201d" font-size="42" font-weight="700">Wool peacoat</text>
    <circle cx="135" cy="860" r="28" fill="#244c66"/><text x="126" y="871" fill="#fff" font-size="30" font-weight="700">3</text>
    <text x="195" y="872" fill="#20201d" font-size="42" font-weight="700">Oversized button-down</text>
    <circle cx="135" cy="985" r="28" fill="#244c66"/><text x="126" y="996" fill="#fff" font-size="30" font-weight="700">4</text>
    <text x="195" y="997" fill="#20201d" font-size="42" font-weight="700">Wide-leg denim</text>
    <circle cx="135" cy="1110" r="28" fill="#244c66"/><text x="126" y="1121" fill="#fff" font-size="30" font-weight="700">5</text>
    <text x="195" y="1122" fill="#20201d" font-size="42" font-weight="700">Vintage shoulder bag</text>
  </g>
  <rect x="100" y="1215" width="800" height="115" rx="22" fill="#d8c4aa"/>
  <text x="135" y="1265" fill="#20201d" font-family="Arial, Helvetica, sans-serif" font-size="30" font-weight="700">SPECIFIC SEARCHES. LIVE LISTINGS.</text>
  <text x="135" y="1307" fill="#20201d" font-family="Arial, Helvetica, sans-serif" font-size="27">What to inspect before you buy →</text>
  <text x="100" y="1390" fill="#695441" font-family="Arial, Helvetica, sans-serif" font-size="24">Research-based affiliate guide • Prices and availability vary</text>
</svg>
